<svg xmlns="http://www.w3.org/2000/svg" version="1.1" xmlns:xlink="http://www.w3.org/1999/xlink" xmlns:svgjs="http://svgjs.dev/svgjs" width="1920" height="1080" preserveAspectRatio="none" viewBox="0 0 1920 1080"><g mask="url(&quot;#SvgjsMask1027&quot;)" fill="none"><rect width="1920" height="1080" x="0" y="0" fill="url(&quot;#SvgjsLinearGradient1028&quot;)"></rect><path d="M -214.75707950855326,704 C -86.76,594.4 169.24,129.8 425.24292049144674,156 C 681.24,182.2 809.24,811.8 1065.2429204914467,835 C 1321.24,858.2 1449.24,311.2 1705.2429204914467,272 C 1961.24,232.8 2302.29,614.2 2345.242920491447,639 C 2388.19,663.8 2005.05,444.6 1920,396" stroke="rgba(51, 121, 194, 0.11)" stroke-width="2"></path><path d="M -27.89610434465078,249 C 100.1,367.8 356.1,833.6 612.1038956553492,843 C 868.1,852.4 996.1,327.4 1252.1038956553493,296 C 1508.1,264.6 1636.1,669 1892.1038956553493,686 C 2148.1,703 2526.52,384.4 2532.1038956553493,381 C 2537.68,377.6 2042.42,611.4 1920,669" stroke="rgba(51, 121, 194, 0.11)" stroke-width="2"></path><path d="M -201.2602683075446,248 C -73.26,343.8 182.74,754 438.7397316924554,727 C 694.74,700 822.74,74.8 1078.7397316924553,113 C 1334.74,151.2 1462.74,838.2 1718.7397316924553,918 C 1974.74,997.8 2318.49,553.4 2358.7397316924553,512 C 2398.99,470.6 2007.75,671.2 1920,711" stroke="rgba(51, 121, 194, 0.11)" stroke-width="2"></path><path d="M -547.2445079465837,696 C -419.24,616.2 -163.24,285.6 92.75549205341633,297 C 348.76,308.4 476.76,762 732.7554920534163,753 C 988.76,744 1116.76,258 1372.7554920534162,252 C 1628.76,246 1903.31,724.8 2012.7554920534162,723 C 2122.2,721.2 1938.55,339 1920,243" stroke="rgba(51, 121, 194, 0.11)" stroke-width="2"></path></g><defs><mask id="SvgjsMask1027"><rect width="1920" height="1080" fill="#ffffff"></rect></mask><linearGradient x1="10.94%" y1="-19.44%" x2="89.06%" y2="119.44%" gradientUnits="userSpaceOnUse" id="SvgjsLinearGradient1028"><stop stop-color="#0e2a47" offset="0"></stop><stop stop-color="#00459e" offset="1"></stop></linearGradient></defs></svg>