<svg width="220" height="60" viewBox="0 0 220 60" fill="none" xmlns="http://www.w3.org/2000/svg">
<path fill-rule="evenodd" clip-rule="evenodd" d="M0 4C0 1.79086 1.79086 0 4 0H56C58.2091 0 60 1.79086 60 4V56C60 58.2091 58.2091 60 56 60H4C1.79086 60 0 58.2091 0 56V4ZM22.3738 18.1471L27.1386 27.4206L21.759 37.77C21.759 37.77 20.9392 38.0262 20.6318 38.1287C20.6062 38.1287 20.5806 38.1415 20.5549 38.1543C20.5293 38.1671 20.5037 38.1799 20.4781 38.1799L21.6565 37.3089L22.1688 36.2842L18.8386 38.7435L18.3262 39.7682L19.5559 38.8972C19.5559 38.9433 19.5352 38.9893 19.5124 39.04C19.4844 39.1021 19.4534 39.1712 19.4534 39.2558V44.2769C19.4534 44.7892 19.8633 45.2503 20.3756 45.2503C21.0098 45.2503 22.8119 45.2629 24.6317 45.2756C26.4875 45.2885 28.3617 45.3016 29.0343 45.3016H29.5979H30.2127C30.5201 45.2503 30.8275 44.9941 30.93 44.738C30.9498 44.7182 30.9619 44.6831 30.9753 44.6446C30.9965 44.5833 31.0208 44.5133 31.0837 44.4818L32.467 43.4059V42.8423L31.0837 43.867V43.0985L32.467 42.0225V41.4077L31.0837 42.4324V41.6639L32.467 40.5879C32.467 40.5166 32.4781 40.4232 32.4899 40.3231C32.5036 40.2075 32.5183 40.083 32.5183 39.9731L31.0837 41.0491V40.2293L33.6454 38.3336V38.2824L33.4405 37.8213L31.0837 39.6145V39.2046C31.0325 39.1021 30.9812 38.9484 30.9812 38.8972C30.9812 38.8716 30.9812 38.8588 30.9876 38.8524C30.994 38.846 31.0068 38.846 31.0325 38.846L33.1331 37.2577L32.9282 36.7966L30.725 38.4361C30.5201 38.3849 30.1102 38.2311 30.0078 38.1799L32.6207 36.233V36.1818L32.4158 35.7719L29.7516 37.7188L30.3664 36.4892L32.1084 35.1571L31.9035 34.6959L30.8788 35.4645L31.4936 34.2348C31.4936 34.2348 31.596 34.1324 31.596 34.0811V33.9787L32.2109 32.749L34.7726 38.0262C34.7293 38.0406 34.6851 38.055 34.6401 38.0697C34.0465 38.263 33.338 38.4938 33.338 39.2558V44.2769C33.338 44.738 33.6967 45.2503 34.1578 45.3016H34.7726H35.3874C36.0216 45.3016 37.8111 45.289 39.6183 45.2763C41.4612 45.2634 43.3223 45.2503 43.9949 45.2503C44.456 45.2503 44.8659 44.7892 44.8659 44.3281V39.2046C44.8659 38.846 44.5585 38.3849 44.1998 38.2824L42.6115 37.77H42.5603L37.3343 27.4206L41.9967 18.1471L43.6875 17.5835C44.0973 17.481 44.3535 17.0199 44.3535 16.61V11.589C44.3535 11.2304 43.9949 10.6156 43.585 10.6156H33.6454C33.1843 10.6156 32.8257 11.2304 32.8257 11.6403V16.5588C32.8257 17.4082 33.4342 17.6057 34.1307 17.8317C34.1904 17.8511 34.2508 17.8707 34.3115 17.8909L32.2109 22.2971C32.2109 22.2971 32.1084 22.1434 32.0572 22.0409C32.0572 22.0409 32.0059 21.9385 32.0059 21.8872C32.0059 21.8616 32.0187 21.8488 32.0315 21.836C32.0443 21.8232 32.0572 21.8104 32.0572 21.7848C32.0315 21.7848 32.0187 21.7976 32.0059 21.8104C31.9931 21.8232 31.9803 21.836 31.9547 21.836L31.6985 21.2212L32.672 20.5039L33.1331 19.5304L31.4936 20.7601C31.4423 20.6576 31.2886 20.3502 31.2374 20.299L31.1862 20.1965L33.2356 18.6594L32.7232 18.4545H32.672L30.9812 19.7354L30.6738 19.1206L32.1084 18.0959C32.1084 17.986 32.079 17.8762 32.0516 17.7743C32.028 17.686 32.0059 17.6036 32.0059 17.5323L30.4689 18.6594C30.4176 18.557 30.1615 18.0446 30.1102 17.8397L30.6738 17.6347V17.686C30.8275 17.5835 30.93 17.5323 31.1349 17.4298C31.2221 17.4007 31.2599 17.3387 31.2949 17.2811C31.3216 17.2372 31.3468 17.1958 31.3911 17.1736L31.9547 16.7125V16.0977C31.8522 16.2002 31.6985 16.3026 31.5448 16.4051V15.6366C31.6473 15.5341 31.9035 15.3292 31.9547 15.3292V14.6631L31.5448 14.9705V11.6403C31.5448 11.2304 31.2374 10.6156 30.7763 10.6156H20.8367C20.4268 10.6156 20.017 11.2304 20.017 11.589V16.5588C20.017 16.9687 20.3244 17.481 20.7343 17.5835L22.3738 18.1471ZM30.8788 35.4645C30.8275 35.4645 30.8275 35.5157 30.8788 35.5157V35.4645ZM17.2503 14.3557L15.662 15.5341V16.1489L18.07 14.3557H17.2503ZM15.662 16.9175V17.5835L19.1972 14.9193V14.3557H19.0947L15.662 16.9175ZM19.1972 15.7391L15.662 18.352V18.9668L19.1972 16.3539V15.7391ZM15.662 19.7866V20.3502L15.7132 20.4014L19.2484 17.7372C19.2484 17.6659 19.2374 17.5835 19.2256 17.4952C19.2119 17.3933 19.1972 17.2835 19.1972 17.1736L15.662 19.7866ZM15.9694 21.0162H15.9182C15.9259 21.0239 15.9371 21.0363 15.951 21.0517C16.0299 21.1387 16.1975 21.3237 16.3281 21.3237L20.017 18.557V18.5057C19.8633 18.4545 19.7096 18.4033 19.5559 18.3008L15.9694 21.0162ZM17.0454 21.5798L17.6089 21.7335L21.3491 18.9668L20.7855 18.7619L17.0454 21.5798ZM21.7077 19.4792L18.1725 22.1434V22.1946L18.3775 22.6045H18.4287L22.0151 19.9403L21.759 19.4792H21.7077ZM18.6849 23.2193L18.8898 23.6292H18.941L22.5275 20.965L22.2713 20.5039L22.2201 20.5551L18.6849 23.2193ZM22.7837 21.5798L19.2484 24.1928V24.244L19.4534 24.6539H19.5046L23.0398 21.9897L22.8349 21.5798V21.5286L22.7837 21.5798ZM19.7608 25.2687L19.9657 25.6786V25.7298L20.017 25.6786L23.5522 23.0656V23.0144L23.3472 22.6045H23.296L19.7608 25.2687ZM23.8596 23.6292L20.3244 26.2422L20.2731 26.2934L20.5293 26.7545L24.1158 24.0391L23.9108 23.6292H23.8596ZM20.7855 27.3181L21.0417 27.7792H21.0929L24.6281 25.115V25.0638L24.4232 24.6539H24.3719L20.7855 27.3181ZM21.4003 28.3428H21.3491C21.3491 28.3941 21.5028 28.6502 21.6053 28.8039L25.1917 26.0885C25.1917 26.0885 25.0892 25.9348 25.038 25.8323C25.038 25.8323 24.9867 25.7298 24.9355 25.6786L21.4003 28.3428ZM25.4991 26.7033L21.8614 29.4188C21.8614 29.4188 22.0151 29.6237 22.0664 29.7262L22.1176 29.8286L25.704 27.1644V27.1132L25.4991 26.7033ZM26.0114 27.728L22.425 30.4435C22.425 30.4435 22.5275 30.6484 22.5787 30.6996C22.5787 30.7509 22.6299 30.8533 22.6299 30.8533L26.2164 28.1891C26.2164 28.1891 26.1139 27.9329 26.0627 27.8305L26.0114 27.728ZM22.4762 31.8268L21.9127 32.8003H22.0151L25.2429 30.341L25.7553 29.3163L22.4762 31.8268ZM24.5769 31.6731L21.2466 34.1324L20.7343 35.1058L24.0645 32.6465L24.5769 31.6731ZM22.8349 34.9521L23.3472 33.9274L20.0682 36.4379L19.5559 37.4114L22.8349 34.9521ZM17.6602 41.1003L17.404 41.5102L16.8916 41.6639C16.8404 41.7151 16.7892 41.7151 16.7892 41.7151L15.0984 42.996V43.6108L18.5824 40.9978V40.383L17.6602 41.1003ZM18.5824 41.8176L15.0984 44.4306V45.0454L18.5824 42.4324V41.8176ZM18.5824 43.2522L15.0984 45.8651V46.48L18.5824 43.867V43.2522ZM32.467 44.2256L28.9831 46.8386V47.4534L32.467 44.8404V44.2256ZM15.0984 47.2997V47.9145L18.6336 45.3016C18.6336 45.0966 18.5824 44.738 18.5312 44.6867L15.0984 47.2997ZM29.0343 48.2219V48.2732C29.0343 48.3244 29.2392 48.7343 29.2392 48.6831L32.8769 45.9676C32.7745 45.8651 32.672 45.7115 32.5695 45.5578L32.5695 45.5577L29.0343 48.2219ZM18.8898 45.8651L15.3034 48.5806C15.2521 48.5806 15.6108 48.9392 15.662 48.888L19.4022 46.1213C19.3509 46.0701 19.2997 46.0701 19.2484 46.0701C19.2117 46.0517 19.1683 46.0201 19.1231 45.9872C19.0422 45.9283 18.9555 45.8651 18.8898 45.8651ZM20.4781 46.1213L16.6355 48.9905H17.1478H17.2503H17.4552L21.2978 46.1213H20.4781ZM18.5312 48.9905H19.3509L23.1935 46.1725C22.9374 46.1213 22.7837 46.1213 22.5275 46.1213H22.3738L18.5312 48.9905ZM39.8961 46.1213C39.7936 46.1213 39.435 46.1213 39.435 46.1725L35.6436 48.9905H36.4634L40.2547 46.1213H40.101H39.8961ZM20.4268 48.9905H21.2466L25.0892 46.1725H24.2695L20.4268 48.9905ZM33.6967 48.9905H34.5164L38.359 46.1725H37.5393L33.6967 48.9905ZM26.1652 46.1725L22.3225 48.9905C22.5787 49.0417 22.7837 49.0417 23.0398 49.0417H23.1423L26.7287 46.3775V46.1725H26.1652ZM29.8541 49.0417H30.725L34.5164 46.1725H34.2603H33.6967L29.8541 49.0417ZM35.5924 46.1725L31.801 49.0417H32.6207L36.4634 46.1725H35.5924ZM40.5109 46.7874L37.5393 48.9905H38.359L40.5109 47.4022V46.7874ZM24.2182 49.0417H24.9867L26.7287 47.7096V47.146L24.2182 49.0417ZM40.4597 48.2219L39.4862 48.9905H39.5887C39.9473 48.9905 40.4597 48.6318 40.4597 48.2219Z" fill="black"/>
<path d="M89.8838 34.2128C90.2691 34.2425 90.1505 35.2205 89.8245 35.2205H81.2889C80.9332 35.2205 80.8147 34.2425 81.2296 34.2128C83.0968 34.0647 82.83 33.0273 81.4371 31.0713L78.2955 26.6849L74.8279 31.0713C73.1682 33.1459 73.5535 34.0647 75.2428 34.2128C75.5688 34.2425 75.5392 35.2205 75.1539 35.2205H68.3372C67.9519 35.2205 67.863 34.2425 68.2483 34.2128C69.4338 34.1239 71.1232 33.0273 72.6643 31.0713L77.2878 25.2623L72.5754 18.6531C70.975 16.4303 69.4931 15.5708 68.3076 15.4819C67.8927 15.4522 67.9816 14.4742 68.3965 14.4742H76.9025C77.2582 14.4742 77.3471 15.4522 76.9914 15.4819C75.065 15.6597 75.3317 16.6377 76.7543 18.6235L79.481 22.4764L82.5336 18.6235C84.1341 16.6081 83.8377 15.6004 82.178 15.4819C81.7631 15.4522 81.8816 14.4742 82.2373 14.4742H89.0539C89.4096 14.4742 89.4985 15.4522 89.1132 15.4819C87.9573 15.5708 86.2383 16.6674 84.6972 18.6235L80.5183 23.899L85.5863 31.0416C87.1571 33.2348 88.6983 34.1239 89.8838 34.2128ZM102.754 35.6947C97.7748 35.6947 91.0471 32.7902 91.0471 25.2327C91.0471 20.1053 94.1886 14 102.487 14C105.925 14 108.889 15.067 108.533 16.1043L108.148 17.2601C107.081 20.4314 105.925 16.371 100.65 16.371C96.4115 16.371 94.3368 19.1273 94.3368 23.3951C94.3368 30.0636 99.4049 32.8495 103.465 32.8495C103.999 32.8495 106.696 32.4346 108.237 31.4565C108.474 31.3084 109.096 31.99 108.919 32.2568C107.644 34.1239 103.673 35.6947 102.754 35.6947ZM132.577 34.2128C132.814 34.2425 132.636 35.2205 132.399 35.2205H124.278C124.041 35.2205 123.863 34.2425 124.1 34.2128C125.612 34.0054 126.56 33.4126 126.56 31.5455V26.4478C126.412 25.944 125.79 25.944 125.227 25.944H117.639C117.076 25.944 116.454 25.944 116.306 26.4478V31.5455C116.306 33.6201 117.491 34.035 118.766 34.2128C119.003 34.2425 118.825 35.2205 118.588 35.2205H110.467C110.23 35.2205 110.052 34.2425 110.289 34.2128C111.801 34.0054 112.749 33.4126 112.749 31.5455V18.1493C112.749 16.2821 111.801 15.6893 110.289 15.4819C110.052 15.4522 110.23 14.4742 110.467 14.4742H118.588C118.825 14.4742 119.003 15.4522 118.766 15.4819C117.491 15.6597 116.306 16.0746 116.306 18.1493V23.5729C116.454 24.0768 117.076 24.0768 117.639 24.0768H125.227C125.79 24.0768 126.412 24.0768 126.56 23.5729V18.1493C126.56 16.2821 125.612 15.6893 124.1 15.4819C123.863 15.4522 124.041 14.4742 124.278 14.4742H132.399C132.636 14.4742 132.814 15.4522 132.577 15.4819C131.302 15.6597 130.117 16.0746 130.117 18.1493V31.5455C130.117 33.6201 131.302 34.035 132.577 34.2128ZM155.316 34.2128C155.731 34.2721 155.613 35.2205 155.257 35.2205H147.433C147.047 35.2205 147.018 34.2721 147.344 34.2128C148.44 34.0054 149.626 33.6201 148.529 31.0713L148.203 30.3303C147.907 29.619 147.403 29.5597 146.514 29.5597H140.468C139.579 29.5597 139.075 29.619 138.778 30.3303L138.482 31.0713C137.445 33.6201 138.571 34.0054 139.994 34.2128C140.379 34.2721 140.29 35.2205 139.905 35.2205H133.503C133.147 35.2205 133.058 34.2721 133.414 34.2128C134.629 34.0054 135.34 33.5905 136.437 31.0713L141.446 19.5719C142.602 16.9638 142.957 15.7486 142.957 14.6224C142.957 14.4446 145.032 13.9704 145.121 14.1778L152.352 31.0416C153.419 33.5608 154.131 34.035 155.316 34.2128ZM146.306 27.9C146.721 27.9 147.166 27.8408 146.988 27.4258L143.52 19.1273L140.023 27.4258C139.845 27.8408 140.29 27.9 140.705 27.9H146.306ZM175.714 35.5169C175.21 35.5169 174.944 35.3094 174.618 34.9538L160.51 20.1943V31.4565C160.51 33.4719 161.696 33.7979 163.385 34.2128C163.622 34.2721 163.504 35.2205 163.207 35.2205H156.183C155.946 35.2205 155.768 34.3018 156.035 34.2128C157.28 33.7979 158.465 33.5608 158.465 31.4565V19.9572C158.465 17.8529 158.139 16.8452 157.369 15.8079C157.102 15.4522 156.835 15.2151 156.835 15.1262C156.835 14.8595 157.013 14.4742 157.428 14.4742H159.621C159.917 14.4742 160.125 14.5038 160.332 14.7409L174.143 29.3523V18.2085C174.143 16.1043 172.81 15.8672 171.269 15.4819C171.032 15.4226 171.15 14.4742 171.446 14.4742H178.471C178.708 14.4742 178.856 15.4226 178.619 15.4819C177.315 15.8672 176.188 16.1043 176.188 18.2085V29.7376C176.188 31.6937 176.248 33.8572 176.544 34.9538C176.663 35.3984 176.188 35.5169 175.714 35.5169ZM192.882 35.6947C185.798 35.6947 180.108 32.1975 180.108 25.2327C180.108 19.5719 183.991 14 192.23 14C195.846 14 198.661 15.067 198.306 16.0746L197.861 17.3194C196.824 20.2535 195.638 16.4006 190.096 16.4006C185.502 16.4006 183.398 19.0384 183.398 23.5137C183.398 30.1821 187.932 33.7979 192.022 33.7979C194.156 33.7979 194.956 32.7606 194.956 31.0713V30.5378C194.956 28.2853 193.949 27.5444 191.578 27.1887C191.193 27.1295 191.548 26.0625 192.2 26.0625H199.817C200.647 26.0625 200.351 27.0998 200.025 27.1887C198.928 27.4851 198.187 28.1075 198.187 30.0043V31.0416C198.187 31.7529 198.246 32.3753 198.809 33.2941C197.031 34.2721 193.593 35.6947 192.882 35.6947ZM201.425 35.2798C201.129 35.3094 201.01 34.2721 201.247 34.2128C202.966 33.7683 204.3 33.5015 204.3 31.3084V18.1493C204.3 16.2525 203.085 15.7486 201.81 15.4226C201.573 15.3633 201.721 14.3853 201.958 14.4149C204.122 14.652 207.856 14.5928 209.664 14.5928C212.361 14.5928 214.317 14.4742 216.748 14.4149C217.459 14.4149 217.459 14.8891 217.311 15.5708L216.599 18.3864C216.51 18.8013 215.77 18.8013 215.651 18.3864C215.206 16.9341 214.317 16.1043 210.613 16.1043C208.538 16.1043 207.856 16.6377 207.856 18.1789V23.0098C207.856 23.7804 208.242 23.9286 208.834 23.9286H209.486C211.887 23.9286 213.962 23.6915 215.177 22.5949C215.473 22.3282 216.125 22.3874 215.858 22.9802L214.169 26.7145C213.932 27.248 213.487 27.1887 213.161 26.7442C212.48 25.7958 210.968 25.4105 209.249 25.4105H208.834C208.242 25.4105 207.856 25.5587 207.856 26.3292V31.3084C207.856 32.9977 208.568 33.6201 211.027 33.6201C215.503 33.6201 217.281 31.5751 217.992 30.4489C218.2 30.1229 219 30.271 219 30.7749C219 32.2864 217.726 35.2798 215.858 35.2798C214.199 35.1909 212.569 35.102 210.079 35.102C207.352 35.102 204.122 35.0131 201.425 35.2798Z" fill="black"/>
<path d="M69.4847 40.0331C69.3464 40.0404 69.2081 40.0623 69.0699 40.1059C68.7715 40.2078 68.5022 40.4116 68.3203 40.6736C68.1602 40.9137 68.0947 41.1975 68.0729 41.4814C68.0583 41.6997 68.0801 41.9253 68.182 42.1218C68.2912 42.3328 68.4804 42.5147 68.6405 42.6894C68.7861 42.8422 68.9316 42.9951 69.0917 43.1333C69.2373 43.2716 69.4046 43.3808 69.5502 43.5263C69.7612 43.7374 69.8413 44.2177 69.6885 44.4797C69.5065 44.7708 69.0772 44.8144 68.7933 44.7198C68.6478 44.6689 68.5168 44.5597 68.3931 44.4724C68.3203 44.4214 68.233 44.3996 68.182 44.4869C68.1529 44.5306 68.1384 44.5815 68.1238 44.6252C68.0729 44.8071 68.0074 44.9745 68.0001 45.171C67.9928 45.3966 68.4222 45.4621 68.5823 45.4985C69.2955 45.6659 70.1542 45.5349 70.5254 44.829C70.5981 44.6834 70.6491 44.5306 70.6782 44.3705C70.6855 44.3123 70.6927 44.2613 70.6927 44.2031C70.7218 43.7374 70.5326 43.3444 70.2488 42.9951C69.9432 42.6166 69.5575 42.3546 69.2009 42.0272C68.9825 41.8234 68.9025 41.5032 68.968 41.2121C69.0335 40.8992 69.3901 40.8191 69.6593 40.8992C69.7394 40.921 69.8049 40.9574 69.8777 41.001C69.9213 41.0229 69.965 41.052 70.0232 41.052C70.1251 41.0593 70.1397 40.9792 70.1615 40.8992C70.2124 40.7172 70.2998 40.5717 70.3361 40.397C70.3725 40.2005 70.2124 40.1641 70.0523 40.1132C69.8631 40.0623 69.6812 40.0259 69.4847 40.0331ZM78.3286 43.3735C78.3286 43.701 78.3213 44.3487 78.314 44.3487V45.3384C78.314 45.3821 78.3067 45.4548 78.3286 45.4985C78.3504 45.5494 78.4159 45.5349 78.4596 45.5276C78.6706 45.5058 78.8817 45.5349 79.0927 45.5276C79.3256 45.5203 79.2528 45.1637 79.2455 45.0182C79.2164 44.698 79.2528 42.26 79.2528 41.3867C79.2528 40.9938 79.2383 40.186 79.2164 40.1496C79.18 40.0841 79.0854 40.0695 79.0127 40.0623C78.8526 40.0331 78.7725 40.0768 78.5323 40.0768C78.2922 40.0768 78.2776 40.1496 78.2776 40.4043V40.6226C78.2704 40.7973 78.2995 42.0199 78.2995 42.2164C78.2995 42.311 78.2922 42.3183 78.1976 42.3183C77.9574 42.311 77.6227 42.3401 77.3752 42.3183C77.0186 42.2891 77.0987 42.3183 77.0769 41.9908V41.9471C77.0769 41.4814 77.1351 40.2733 77.1132 40.2005C77.0769 40.0914 77.0332 40.0695 76.9386 40.0768C76.7203 40.0914 76.4947 40.055 76.2763 40.0695C76.2036 40.0768 76.1817 40.0986 76.1599 40.1714C76.1526 40.2078 76.1454 40.2442 76.1454 40.2806C76.1454 40.5062 76.1599 40.8118 76.1672 41.0374L76.1454 45.3529C76.1454 45.5422 76.3127 45.5203 76.6839 45.5203C77.0259 45.5203 77.1132 45.6004 77.1132 45.1928C77.1132 44.8654 77.0914 44.4505 77.0987 44.1231C77.106 43.8683 77.0987 43.6209 77.0987 43.3662C77.106 43.2716 77.1278 43.2425 77.2151 43.2425C77.5353 43.2352 77.8847 43.2425 78.2049 43.2425C78.3067 43.2425 78.3286 43.257 78.3286 43.3735ZM85.3822 45.4694C85.4041 45.4767 85.4696 45.4767 85.5351 45.4767C85.6806 45.4767 85.7243 44.9527 85.7388 44.8435C85.7461 44.7562 85.7679 44.7489 85.8407 44.7344C86.2046 44.6907 86.3865 44.7198 86.7504 44.7271C86.8304 44.7271 86.8741 44.7635 86.8959 44.829L86.9469 44.9964C86.9905 45.1201 87.0269 45.2729 87.0706 45.3966C87.0997 45.4839 87.107 45.4767 87.1943 45.4767C87.3107 45.4767 87.7328 45.4767 87.8566 45.4694C88.0239 45.4694 87.9075 45.1273 87.8857 45.0691C87.8202 44.8654 87.8056 44.6543 87.7401 44.4505C87.711 44.3632 86.8814 40.4261 86.845 40.2078C86.794 40.0768 86.8377 40.0695 86.7213 40.0695C86.4738 40.0695 86.2119 40.0841 85.9571 40.0695C85.8553 40.0695 85.8625 40.0986 85.848 40.2078C85.8334 40.3097 85.5714 41.4668 85.4696 41.9471C85.3386 42.5511 85.2221 43.1333 85.0766 43.7301C85.0256 43.9411 84.6763 45.4621 84.72 45.4694C84.7418 45.4839 84.7782 45.4767 84.8073 45.4767C84.9892 45.4767 85.1566 45.4767 85.3822 45.4694ZM86.3356 43.8174H86.1827C85.979 43.8174 85.9717 43.8174 86.0226 43.6064C86.059 43.4463 86.2555 42.5802 86.2992 42.3692C86.3065 42.3546 86.321 42.3401 86.3283 42.3401C86.3428 42.3401 86.3574 42.3546 86.3647 42.3619C86.3938 42.4493 86.4229 42.6676 86.452 42.7549C86.5175 43.0314 86.5612 43.2643 86.6267 43.5627C86.6922 43.8247 86.6631 43.8247 86.5321 43.8247C86.4666 43.8247 86.4011 43.8174 86.3356 43.8174ZM94.2989 44.9818C94.2989 44.7926 94.2989 43.5991 94.3062 43.5045C94.3134 43.4826 94.328 43.439 94.3571 43.439C94.3862 43.439 94.4008 43.4535 94.4081 43.4754C94.6992 44.043 94.9539 44.6106 95.2158 45.1637C95.2522 45.2438 95.3323 45.4767 95.3541 45.4985C95.3832 45.5422 95.4342 45.5276 95.4778 45.5276L96.2784 45.5349C96.373 45.5349 96.3948 45.4767 96.373 45.3966C96.3147 45.1783 95.8999 44.4069 95.8053 44.2177C95.7398 44.0721 95.3032 43.2279 95.2886 43.1624C95.2741 43.1333 95.3832 43.0824 95.3978 43.0606C95.7471 42.7476 96.06 42.4274 96.1255 41.9398C96.1983 41.4595 96.0891 40.9355 95.7762 40.5498C95.5361 40.266 95.2231 40.0986 94.852 40.0768C94.6264 40.0623 94.4081 40.0841 94.1825 40.0768C93.986 40.0695 93.8477 40.0695 93.6003 40.0695C93.4838 40.0695 93.411 40.135 93.4038 40.2587V40.3461C93.3892 40.9064 93.4038 41.4668 93.411 42.0199C93.411 42.8641 93.3965 45.091 93.3965 45.4112C93.3965 45.5058 93.411 45.5276 93.4984 45.5276C93.5493 45.5276 93.6075 45.5349 93.6585 45.5349C93.8622 45.5349 93.986 45.5276 94.197 45.5276C94.3571 45.5276 94.2989 45.2656 94.2989 44.9818ZM94.2989 42.1436L94.3062 41.4086C94.3134 41.2994 94.2771 41.0811 94.3789 41.001C94.5172 40.8992 94.801 41.001 94.9248 41.0884C95.2886 41.3358 95.2595 41.9471 95.063 42.2891C94.9684 42.4493 94.8083 42.5439 94.6264 42.5948C94.5172 42.6239 94.3134 42.6603 94.3062 42.4856C94.3062 42.3692 94.2989 42.1436 94.2989 42.1436ZM102.837 43.65C102.815 42.8204 102.823 41.9398 102.83 41.1175C102.83 40.8628 102.815 40.5862 102.815 40.3315C102.815 40.055 102.706 40.0695 102.561 40.0623C102.35 40.055 102.255 40.055 102.044 40.055C101.906 40.0477 101.847 40.0841 101.847 40.2224C101.847 40.9355 101.826 42.9514 101.833 43.2425C101.84 43.5336 101.869 44.8581 101.855 45.1492C101.847 45.2511 101.855 45.3529 101.862 45.4548C101.869 45.4912 101.891 45.5276 101.949 45.5276C102.189 45.513 102.415 45.513 102.655 45.5058C102.743 45.4985 102.815 45.4767 102.852 45.3821C102.859 45.3311 102.837 43.9993 102.837 43.65ZM111.404 40.2369C111.426 40.3388 111.412 45.1856 111.412 45.3093C111.412 45.5276 111.332 45.5203 111.186 45.5203C110.968 45.5203 110.662 45.5567 110.597 45.4839C110.538 45.433 109.461 42.835 109.309 42.5075C109.294 42.4784 109.258 42.4056 109.229 42.4201C109.192 42.4347 109.207 42.4856 109.207 42.5147C109.199 42.7695 109.243 44.9672 109.243 45.3166C109.243 45.4912 109.236 45.5203 109.09 45.5203H108.726C108.632 45.5203 108.515 45.513 108.421 45.5276C108.348 45.5276 108.312 45.5058 108.304 45.433V44.8581C108.319 44.2468 108.304 40.6226 108.304 40.3534C108.304 40.1205 108.37 40.0768 108.603 40.0768C108.763 40.0695 108.923 40.0695 109.083 40.0695C109.134 40.0695 109.163 40.0768 109.192 40.1423C109.389 40.6008 110.226 42.704 110.357 42.9587C110.378 43.0096 110.458 43.2134 110.502 43.2352H110.509C110.538 43.2061 110.531 43.0606 110.531 43.0169C110.531 42.9077 110.473 40.3534 110.473 40.3024C110.473 40.2296 110.451 40.1641 110.488 40.1132C110.509 40.0841 110.604 40.0768 110.64 40.0695C110.844 40.055 111.084 40.0768 111.288 40.0695C111.39 40.0695 111.383 40.1423 111.404 40.2369ZM120.125 44.305C120.132 44.6543 120.125 45.0109 120.103 45.3602C120.103 45.3893 120.081 45.4184 120.059 45.433C120.03 45.4548 119.994 45.4694 119.957 45.4694C119.506 45.5422 118.96 45.5785 118.524 45.433C117.541 45.0982 116.872 43.9993 116.872 42.7403C116.872 41.3795 117.847 40.055 119.266 40.004C119.455 39.9968 120.103 39.9676 120.081 40.2879C120.066 40.5207 120.088 40.7099 120.081 40.9501C120.081 40.9938 120.052 41.0229 120.008 41.0156C119.593 40.9647 119.12 40.8337 118.72 41.0229C118.385 41.183 118.152 41.525 118.021 41.8598C117.789 42.4129 117.84 43.0533 118 43.6209C118.123 44.0721 118.393 44.6034 118.931 44.6179C118.96 44.6252 119.237 44.6398 119.237 44.6106L119.215 43.6791C119.208 43.6355 119.208 43.5918 119.2 43.5481C119.193 43.5045 119.164 43.4899 119.12 43.4826C119.004 43.4826 119.004 43.4754 118.887 43.4754C118.618 43.4754 118.676 43.2934 118.669 43.2352C118.662 43.1261 118.669 43.0242 118.662 42.915C118.655 42.8131 118.684 42.7331 118.786 42.7185H118.873C119.251 42.6967 119.637 42.7258 120.037 42.7258C120.096 42.7258 120.125 42.7986 120.125 42.8641C120.132 42.9368 120.132 42.9878 120.132 43.0606C120.154 43.4171 120.11 43.781 120.117 44.1376C120.125 44.1958 120.125 44.2468 120.125 44.305ZM133.14 43.65C133.119 42.8204 133.126 41.9398 133.133 41.1175C133.133 40.8628 133.119 40.5862 133.119 40.3315C133.119 40.055 133.009 40.0695 132.864 40.0623C132.653 40.055 132.558 40.055 132.347 40.055C132.209 40.0477 132.151 40.0841 132.151 40.2224C132.151 40.9355 132.129 42.9514 132.136 43.2425C132.143 43.5336 132.172 44.8581 132.158 45.1492C132.151 45.2511 132.158 45.3529 132.165 45.4548C132.172 45.4912 132.194 45.5276 132.252 45.5276C132.493 45.513 132.718 45.513 132.958 45.5058C133.046 45.4985 133.118 45.4767 133.155 45.3821C133.162 45.3311 133.14 43.9993 133.14 43.65ZM141.708 40.2369C141.73 40.3388 141.715 45.1856 141.715 45.3093C141.715 45.5276 141.635 45.5203 141.489 45.5203C141.271 45.5203 140.965 45.5567 140.9 45.4839C140.842 45.433 139.765 42.835 139.612 42.5075C139.597 42.4784 139.561 42.4056 139.532 42.4201C139.495 42.4347 139.51 42.4856 139.51 42.5147C139.503 42.7695 139.546 44.9672 139.546 45.3166C139.546 45.4912 139.539 45.5203 139.393 45.5203H139.03C138.935 45.5203 138.819 45.513 138.724 45.5276C138.651 45.5276 138.615 45.5058 138.607 45.433V44.8581C138.622 44.2468 138.607 40.6226 138.607 40.3534C138.607 40.1205 138.673 40.0768 138.906 40.0768C139.066 40.0695 139.226 40.0695 139.386 40.0695C139.437 40.0695 139.466 40.0768 139.495 40.1423C139.692 40.6008 140.529 42.704 140.66 42.9587C140.682 43.0096 140.762 43.2134 140.805 43.2352H140.813C140.842 43.2061 140.834 43.0606 140.834 43.0169C140.834 42.9077 140.776 40.3534 140.776 40.3024C140.776 40.2296 140.754 40.1641 140.791 40.1132C140.813 40.0841 140.907 40.0768 140.944 40.0695C141.147 40.055 141.387 40.0768 141.591 40.0695C141.693 40.0695 141.686 40.1423 141.708 40.2369ZM148.659 40.0331C148.521 40.0404 148.383 40.0623 148.245 40.1059C147.946 40.2078 147.677 40.4116 147.495 40.6736C147.335 40.9137 147.269 41.1975 147.248 41.4814C147.233 41.6997 147.255 41.9253 147.357 42.1218C147.466 42.3328 147.655 42.5147 147.815 42.6894C147.961 42.8422 148.106 42.9951 148.266 43.1333C148.412 43.2716 148.579 43.3808 148.725 43.5263C148.936 43.7374 149.016 44.2177 148.863 44.4797C148.681 44.7708 148.252 44.8144 147.968 44.7198C147.823 44.6689 147.692 44.5597 147.568 44.4724C147.495 44.4214 147.408 44.3996 147.357 44.4869C147.328 44.5306 147.313 44.5815 147.299 44.6252C147.248 44.8071 147.182 44.9745 147.175 45.171C147.168 45.3966 147.597 45.4621 147.757 45.4985C148.47 45.6659 149.329 45.5349 149.7 44.829C149.773 44.6834 149.824 44.5306 149.853 44.3705C149.86 44.3123 149.868 44.2613 149.868 44.2031C149.897 43.7374 149.707 43.3444 149.424 42.9951C149.118 42.6166 148.732 42.3546 148.376 42.0272C148.157 41.8234 148.077 41.5032 148.143 41.2121C148.208 40.8992 148.565 40.8191 148.834 40.8992C148.914 40.921 148.98 40.9574 149.052 41.001C149.096 41.0229 149.14 41.052 149.198 41.052C149.3 41.0593 149.314 40.9792 149.336 40.8992C149.387 40.7172 149.475 40.5717 149.511 40.397C149.547 40.2005 149.387 40.1641 149.227 40.1132C149.038 40.0623 148.856 40.0259 148.659 40.0331ZM156.324 43.65C156.303 42.8204 156.31 41.9398 156.317 41.1175C156.317 40.8628 156.303 40.5862 156.303 40.3315C156.303 40.055 156.193 40.0695 156.048 40.0623C155.837 40.055 155.742 40.055 155.531 40.055C155.393 40.0477 155.335 40.0841 155.335 40.2224C155.335 40.9355 155.313 42.9514 155.32 43.2425C155.327 43.5336 155.356 44.8581 155.342 45.1492C155.335 45.2511 155.342 45.3529 155.349 45.4548C155.356 45.4912 155.378 45.5276 155.437 45.5276C155.677 45.513 155.902 45.513 156.142 45.5058C156.23 45.4985 156.303 45.4767 156.339 45.3821C156.346 45.3311 156.324 43.9993 156.324 43.65ZM165.045 44.305C165.052 44.6543 165.045 45.0109 165.023 45.3602C165.023 45.3893 165.001 45.4184 164.979 45.433C164.95 45.4548 164.914 45.4694 164.877 45.4694C164.426 45.5422 163.88 45.5785 163.444 45.433C162.461 45.0982 161.792 43.9993 161.792 42.7403C161.792 41.3795 162.767 40.055 164.186 40.004C164.375 39.9968 165.023 39.9676 165.001 40.2879C164.986 40.5207 165.008 40.7099 165.001 40.9501C165.001 40.9938 164.972 41.0229 164.928 41.0156C164.513 40.9647 164.04 40.8337 163.64 41.0229C163.305 41.183 163.072 41.525 162.941 41.8598C162.709 42.4129 162.759 43.0533 162.92 43.6209C163.043 44.0721 163.313 44.6034 163.851 44.6179C163.88 44.6252 164.157 44.6398 164.157 44.6106L164.135 43.6791C164.128 43.6355 164.128 43.5918 164.12 43.5481C164.113 43.5045 164.084 43.4899 164.04 43.4826C163.924 43.4826 163.924 43.4754 163.807 43.4754C163.538 43.4754 163.596 43.2934 163.589 43.2352C163.582 43.1261 163.589 43.0242 163.582 42.915C163.575 42.8131 163.604 42.7331 163.706 42.7185H163.793C164.171 42.6967 164.557 42.7258 164.957 42.7258C165.015 42.7258 165.045 42.7986 165.045 42.8641C165.052 42.9368 165.052 42.9878 165.052 43.0606C165.074 43.4171 165.03 43.781 165.037 44.1376C165.045 44.1958 165.045 44.2468 165.045 44.305ZM172.695 43.3735C172.695 43.701 172.688 44.3487 172.68 44.3487V45.3384C172.68 45.3821 172.673 45.4548 172.695 45.4985C172.717 45.5494 172.782 45.5349 172.826 45.5276C173.037 45.5058 173.248 45.5349 173.459 45.5276C173.692 45.5203 173.619 45.1637 173.612 45.0182C173.583 44.698 173.619 42.26 173.619 41.3867C173.619 40.9938 173.605 40.186 173.583 40.1496C173.546 40.0841 173.452 40.0695 173.379 40.0623C173.219 40.0331 173.139 40.0768 172.899 40.0768C172.659 40.0768 172.644 40.1496 172.644 40.4043V40.6226C172.637 40.7973 172.666 42.0199 172.666 42.2164C172.666 42.311 172.659 42.3183 172.564 42.3183C172.324 42.311 171.989 42.3401 171.742 42.3183C171.385 42.2891 171.465 42.3183 171.443 41.9908V41.9471C171.443 41.4814 171.501 40.2733 171.48 40.2005C171.443 40.0914 171.4 40.0695 171.305 40.0768C171.087 40.0914 170.861 40.055 170.643 40.0695C170.57 40.0768 170.548 40.0986 170.526 40.1714C170.519 40.2078 170.512 40.2442 170.512 40.2806C170.512 40.5062 170.526 40.8118 170.534 41.0374L170.512 45.3529C170.512 45.5422 170.679 45.5203 171.05 45.5203C171.392 45.5203 171.48 45.6004 171.48 45.1928C171.48 44.8654 171.458 44.4505 171.465 44.1231C171.472 43.8683 171.465 43.6209 171.465 43.3662C171.472 43.2716 171.494 43.2425 171.582 43.2425C171.902 43.2352 172.251 43.2425 172.571 43.2425C172.673 43.2425 172.695 43.257 172.695 43.3735ZM180.003 44.7344C180.011 44.96 180.011 45.1856 180.018 45.4112C180.018 45.513 180.025 45.5276 180.127 45.5276H180.782C180.92 45.5276 180.891 45.2947 180.884 45.171L180.906 41.0957C180.906 40.9865 180.942 40.9501 181.088 40.9501H181.728C181.881 40.9501 181.845 40.6881 181.845 40.5062C181.845 40.3461 181.903 40.0695 181.728 40.0695C181.604 40.0695 180.418 40.0695 179.931 40.0768C179.69 40.0768 179.494 40.0695 179.254 40.0695C179.072 40.0695 179.079 40.2151 179.079 40.5353C179.079 40.7391 179.072 40.9428 179.246 40.9428C179.348 40.9428 179.763 40.9428 179.88 40.9501C179.952 40.9501 180.003 40.9719 180.018 41.052C180.018 41.0738 180.025 41.0957 180.025 41.1175C180.025 41.6415 179.989 44.0794 180.003 44.7344ZM188.789 40.0331C188.651 40.0404 188.512 40.0623 188.374 40.1059C188.076 40.2078 187.807 40.4116 187.625 40.6736C187.465 40.9137 187.399 41.1975 187.377 41.4814C187.363 41.6997 187.384 41.9253 187.486 42.1218C187.595 42.3328 187.785 42.5147 187.945 42.6894C188.09 42.8422 188.236 42.9951 188.396 43.1333C188.542 43.2716 188.709 43.3808 188.854 43.5263C189.066 43.7374 189.146 44.2177 188.993 44.4797C188.811 44.7708 188.381 44.8144 188.098 44.7198C187.952 44.6689 187.821 44.5597 187.697 44.4724C187.625 44.4214 187.537 44.3996 187.486 44.4869C187.457 44.5306 187.443 44.5815 187.428 44.6252C187.377 44.8071 187.312 44.9745 187.304 45.171C187.297 45.3966 187.726 45.4621 187.887 45.4985C188.6 45.6659 189.459 45.5349 189.83 44.829C189.902 44.6834 189.953 44.5306 189.982 44.3705C189.99 44.3123 189.997 44.2613 189.997 44.2031C190.026 43.7374 189.837 43.3444 189.553 42.9951C189.247 42.6166 188.862 42.3546 188.505 42.0272C188.287 41.8234 188.207 41.5032 188.272 41.2121C188.338 40.8992 188.694 40.8191 188.964 40.8992C189.044 40.921 189.109 40.9574 189.182 41.001C189.226 41.0229 189.269 41.052 189.328 41.052C189.429 41.0593 189.444 40.9792 189.466 40.8992C189.517 40.7172 189.604 40.5717 189.64 40.397C189.677 40.2005 189.517 40.1641 189.357 40.1132C189.167 40.0623 188.985 40.0259 188.789 40.0331Z" fill="black"/>
</svg>
